<svg xmlns="http://www.w3.org/2000/svg" width="91" height="91" viewBox="0 0 91 91">
  <defs>
    <style>
      .cls-1 {
        fill: #000;
        fill-rule: evenodd;
      }
    </style>
  </defs>
  <path id="insta" class="cls-1" d="M45.545,8.394c12.133,0,13.57.046,18.361,0.266a25.216,25.216,0,0,1,8.437,1.561,14.09,14.09,0,0,1,5.225,3.394,14.039,14.039,0,0,1,3.4,5.215,25.056,25.056,0,0,1,1.565,8.421c0.218,4.784.265,6.218,0.265,18.33s-0.046,13.546-.265,18.329a25.059,25.059,0,0,1-1.565,8.423,15.024,15.024,0,0,1-8.623,8.607A25.141,25.141,0,0,1,63.906,82.5c-4.791.217-6.228,0.263-18.361,0.263s-13.57-.046-18.361-0.263a25.141,25.141,0,0,1-8.437-1.563,14.058,14.058,0,0,1-5.225-3.391,14.056,14.056,0,0,1-3.4-5.216,25.062,25.062,0,0,1-1.565-8.423C8.34,59.125,8.294,57.691,8.294,45.58s0.046-13.546.265-18.327a25.062,25.062,0,0,1,1.565-8.423,14.038,14.038,0,0,1,3.4-5.215,14.089,14.089,0,0,1,5.225-3.394,25.216,25.216,0,0,1,8.437-1.561c4.792-.219,6.229-0.266,18.361-0.266m0-8.173c-12.34,0-13.888.053-18.734,0.272A33.4,33.4,0,0,0,15.781,2.6,22.256,22.256,0,0,0,7.733,7.834a22.232,22.232,0,0,0-5.241,8.034A33.252,33.252,0,0,0,.38,26.878C0.159,31.717.107,33.26,0.107,45.58s0.052,13.864.273,18.7A33.238,33.238,0,0,0,2.492,75.292a22.232,22.232,0,0,0,5.241,8.034,22.257,22.257,0,0,0,8.048,5.231,33.4,33.4,0,0,0,11.03,2.11c4.846,0.221,6.394.272,18.734,0.272s13.888-.051,18.734-0.272a33.4,33.4,0,0,0,11.029-2.11A23.21,23.21,0,0,0,88.6,75.292,33.239,33.239,0,0,0,90.71,64.281c0.221-4.837.273-6.382,0.273-18.7s-0.052-13.862-.273-18.7A33.252,33.252,0,0,0,88.6,15.867a22.233,22.233,0,0,0-5.241-8.034A22.259,22.259,0,0,0,75.309,2.6,33.4,33.4,0,0,0,64.279.493C59.433,0.274,57.885.221,45.545,0.221h0Zm0,22.066A23.293,23.293,0,1,0,68.878,45.58,23.313,23.313,0,0,0,45.545,22.287Zm0,38.412A15.12,15.12,0,1,1,60.691,45.58,15.133,15.133,0,0,1,45.545,60.7ZM75.253,21.368A5.453,5.453,0,1,1,69.8,15.925,5.446,5.446,0,0,1,75.253,21.368Z"/>
</svg>
