<svg xmlns="http://www.w3.org/2000/svg" width="97" height="91" viewBox="0 0 97 91">
  <defs>
    <style>
      .cls-1 {
        fill: #000;
        fill-rule: evenodd;
      }
    </style>
  </defs>
  <path id="line" class="cls-1" d="M97,38.757C97,17.379,75.241-.014,48.494-0.014S-0.01,17.379-.01,38.757c0,19.165,17.256,35.216,40.565,38.251,1.579,0.336,3.73,1.025,4.273,2.356a9.672,9.672,0,0,1,.157,4.32s-0.569,3.371-.692,4.09c-0.211,1.207-.975,4.724,4.2,2.576s27.934-16.2,38.11-27.738h0c7.03-7.593,10.4-15.3,10.4-23.854M38.639,28.426h-3.4a0.938,0.938,0,0,0-.945.929V50.172a0.937,0.937,0,0,0,.945.928h3.4a0.937,0.937,0,0,0,.945-0.928V29.355a0.937,0.937,0,0,0-.945-0.929m23.418,0h-3.4a0.937,0.937,0,0,0-.945.929V41.723L48.025,28.839a0.968,0.968,0,0,0-.074-0.094l-0.006-.006c-0.018-.02-0.038-0.039-0.057-0.057l-0.018-.016c-0.016-.014-0.033-0.029-0.051-0.042L47.8,28.606l-0.049-.033-0.028-.016c-0.017-.01-0.034-0.02-0.051-0.028l-0.03-.014c-0.018-.008-0.035-0.016-0.054-0.023l-0.031-.011L47.5,28.462l-0.033-.008-0.054-.012-0.04-.005a0.5,0.5,0,0,0-.05-0.006l-0.049,0-0.033,0h-3.4a0.938,0.938,0,0,0-.945.929V50.172a0.937,0.937,0,0,0,.945.928h3.4a0.937,0.937,0,0,0,.946-0.928V37.809l9.7,12.9a0.928,0.928,0,0,0,.239.229l0.01,0.008c0.019,0.012.038,0.024,0.058,0.035l0.027,0.014,0.045,0.022,0.046,0.019,0.028,0.011L58.4,51.066l0.014,0a0.934,0.934,0,0,0,.242.032h3.4A0.936,0.936,0,0,0,63,50.172V29.355a0.937,0.937,0,0,0-.945-0.929M30.438,45.888H21.193V29.356a0.937,0.937,0,0,0-.944-0.93h-3.4a0.938,0.938,0,0,0-.945.93V50.172a0.916,0.916,0,0,0,.264.643,0.113,0.113,0,0,0,.013.014l0.014,0.013a0.946,0.946,0,0,0,.652.259H30.438a0.937,0.937,0,0,0,.943-0.931V46.819a0.937,0.937,0,0,0-.943-0.931M80.846,33.639a0.937,0.937,0,0,0,.943-0.931V29.357a0.937,0.937,0,0,0-.943-0.931H67.253a0.947,0.947,0,0,0-.656.262,0.107,0.107,0,0,1-.011.01l-0.015.017a0.918,0.918,0,0,0-.262.641V50.172a0.916,0.916,0,0,0,.264.643l0.013,0.014L66.6,50.841a0.945,0.945,0,0,0,.652.26H80.846a0.937,0.937,0,0,0,.943-0.931V46.819a0.937,0.937,0,0,0-.943-0.931H71.6V42.37h9.244a0.937,0.937,0,0,0,.943-0.931V38.088a0.937,0.937,0,0,0-.943-0.931H71.6V33.639h9.244Z"/>
</svg>
