<svg xmlns="http://www.w3.org/2000/svg" width="98" height="78" viewBox="0 0 98 78">
  <defs>
    <style>
      .cls-1 {
        fill: #000;
        fill-rule: evenodd;
      }
    </style>
  </defs>
  <path id="twitter" class="cls-1" d="M97.524,9.506A40.9,40.9,0,0,1,86.037,12.57,19.616,19.616,0,0,0,94.829,1.8a40.76,40.76,0,0,1-12.7,4.722A20.227,20.227,0,0,0,67.531.384c-11.043,0-20,8.711-20,19.456a19.161,19.161,0,0,0,.516,4.434A57.315,57.315,0,0,1,6.826,3.941a18.993,18.993,0,0,0-2.708,9.785,19.318,19.318,0,0,0,8.9,16.2,20.294,20.294,0,0,1-9.06-2.433c0,0.084,0,.162,0,0.246A19.618,19.618,0,0,0,20,46.816a20.483,20.483,0,0,1-9.03.332A19.947,19.947,0,0,0,29.652,60.663,40.835,40.835,0,0,1,4.81,69,41.952,41.952,0,0,1,.04,68.723,57.725,57.725,0,0,0,30.7,77.467c36.787,0,56.9-29.653,56.9-55.369,0-.846-0.02-1.682-0.06-2.517A40.111,40.111,0,0,0,97.524,9.506Z"/>
</svg>
