<svg xmlns="http://www.w3.org/2000/svg" width="100" height="80" viewBox="0 0 100 80">
  <defs>
    <style>
      .cls-1 {
        fill: #000;
        fill-rule: evenodd;
      }
    </style>
  </defs>
  <path id="youtube" class="cls-1" d="M97.371,13.08A14.146,14.146,0,0,0,85.328,1.97C71.514,0.4,63.9.393,49.976,0.4,36.054,0.393,28.436.4,14.623,1.97A14.141,14.141,0,0,0,2.584,13.08C0.643,21.643.621,30.989,0.621,39.8s0,18.164,1.939,26.728A14.15,14.15,0,0,0,14.6,77.643c13.814,1.565,21.431,1.574,35.352,1.565,13.922,0.009,21.538,0,35.353-1.565A14.151,14.151,0,0,0,97.348,66.532C99.287,57.968,99.3,48.624,99.3,39.8S99.31,21.643,97.371,13.08ZM66.829,37.865L40.5,22.44a2.178,2.178,0,0,0-2.208,0,2.239,2.239,0,0,0-1.106,1.937V55.231A2.237,2.237,0,0,0,38.3,57.171a2.153,2.153,0,0,0,2.2,0l26.33-15.423A2.261,2.261,0,0,0,66.829,37.865Z"/>
</svg>
