<svg xmlns="http://www.w3.org/2000/svg" width="95" height="100" viewBox="0 0 95 100">
  <defs>
    <style>
      .cls-1 {
        fill: #000;
        fill-rule: evenodd;
      }
    </style>
  </defs>
  <path id="clowd" class="cls-1" d="M47.519,0c25.757,0,46.717,20.017,47.463,44.99a11.2,11.2,0,0,1-.159,2.987,7.231,7.231,0,0,1-5.67,5.377l-3.5,15.034a14.932,14.932,0,0,1,3.98,10.13A15.236,15.236,0,0,1,77.637,93.271c-0.937,9.282-15.824,8.959-15.824-.941V64.574c0-9.944,15.016-10.223,15.831-.807,0.092,0.023.191,0.045,0.282,0.072l3.311-14.191a6.807,6.807,0,0,1-.7-2.017,11.457,11.457,0,0,1-.122-1.9c-0.35-17.446-14.949-31.484-32.9-31.484-17.848,0-32.378,13.883-32.888,31.19A14.167,14.167,0,0,1,14.5,47.63a6.6,6.6,0,0,1-.7,2.017L17.12,63.839c0.091-.027.184-0.049,0.275-0.072,0.807-9.416,15.831-9.138,15.831.807V92.33c0,9.9-14.88,10.223-15.824.941A15.225,15.225,0,0,1,5.415,78.52a14.858,14.858,0,0,1,3.98-10.13L5.879,53.356A7.209,7.209,0,0,1,.148,47.63,12.74,12.74,0,0,1,.041,45.1C0.734,20.081,21.733,0,47.519,0h0Z"/>
</svg>
