<svg xmlns="http://www.w3.org/2000/svg" width="400" height="80" viewBox="0 0 400 80">
  <defs>
    <style>
      .cls-1 {
        fill-rule: evenodd;
      }
    </style>
  </defs>
  <path id="OFFICIAL_WEB_SITE" data-name="OFFICIAL WEB SITE" class="cls-1" d="M19.365,34.49h9.875V31.711H25.584q-3.418-4.278-6.741-8.464T12.1,14.831L23.163,4.436H27.2V1.516H17.323V4.436H19.46L7.354,15.8,6.5,16.825q0.047-.373.071-0.724t0.024-.725V4.436H9.87V1.516H-0.005V4.436H3.65V31.711H-0.005V34.49H10.534V31.711H6.594V19.981L10.155,16.7q2.991,3.764,5.958,7.5t5.958,7.5H19.365V34.49Zm19.55,0h9.875V31.711H45.632q1.186-2.731,2.326-5.417t2.326-5.417H62.153q1.186,2.733,2.3,5.417t2.3,5.417H63.7V34.49h9.827V31.711H69.7Q66.294,23.7,62.96,15.86L56.219,0.008Q52.8,8.017,49.43,15.86T42.688,31.711H38.914V34.49ZM60.966,18.1H51.471q0.57-1.318,1.211-2.85T53.916,12.3q0.593-1.413,1.092-2.567t0.736-1.766l0.19-.659a2.7,2.7,0,0,0,.142-0.471,1.423,1.423,0,0,1,.095-0.33l0.475,1.46ZM83.2,34.49H93.742V31.711H90.134V8.44L90.039,6.98l0.855,1.178L116.2,36V4.436h4.036V1.516H109.741V4.436h3.513V28l0.142,1.5-0.9-1.225L88.52,1.516H83.2V4.436h3.988V31.711H83.2V34.49Zm44.616,0h9.875V31.711h-3.158q1.186-2.731,2.327-5.417t2.326-5.417h11.869q1.185,2.733,2.3,5.417t2.3,5.417H152.6V34.49h9.827V31.711h-3.822Q155.2,23.7,151.865,15.86L145.123,0.008Q141.7,8.017,138.334,15.86t-6.741,15.851h-3.774V34.49ZM149.871,18.1h-9.5q0.57-1.318,1.21-2.85t1.235-2.944q0.593-1.413,1.092-2.567t0.736-1.766l0.189-.659a2.709,2.709,0,0,0,.143-0.471,1.412,1.412,0,0,1,.095-0.33l0.475,1.46ZM193.333,34.49h9.874V31.711H200.05q1.186-2.731,2.326-5.417t2.327-5.417h11.868q1.186,2.733,2.3,5.417t2.3,5.417h-3.062V34.49h9.828V31.711H224.12q-3.408-8.008-6.742-15.851T210.637,0.008q-3.418,8.009-6.789,15.851t-6.741,15.851h-3.774V34.49ZM215.384,18.1H205.89q0.569-1.318,1.21-2.85t1.235-2.944q0.592-1.413,1.091-2.567t0.736-1.766l0.19-.659a2.709,2.709,0,0,0,.143-0.471,1.412,1.412,0,0,1,.095-0.33l0.474,1.46ZM237.621,34.49h8.356a21.171,21.171,0,0,0,8.521-1.531,16.636,16.636,0,0,0,5.673-3.91,14.614,14.614,0,0,0,3.158-5.3,17.993,17.993,0,0,0,.973-5.7,16.937,16.937,0,0,0-1.33-6.854,15.613,15.613,0,0,0-8.925-8.526,18.036,18.036,0,0,0-6.456-1.154h-9.97V4.436h2.611V31.569h-2.611V34.49Zm9.732-30.053a15.469,15.469,0,0,1,5.46.959,13.451,13.451,0,0,1,4.463,2.714,12.5,12.5,0,0,1,2.99,4.28A14.005,14.005,0,0,1,261.358,18a14.03,14.03,0,0,1-1,5.287,12.357,12.357,0,0,1-2.872,4.3,13.846,13.846,0,0,1-4.557,2.9,16.14,16.14,0,0,1-6.053,1.076h-3.7V4.436h4.177Zm23.5,30.053h9.875V31.711h-3.157q1.186-2.731,2.326-5.417t2.327-5.417H294.1q1.187,2.733,2.3,5.417t2.3,5.417h-3.062V34.49h9.827V31.711h-3.821Q298.237,23.7,294.9,15.86T288.162,0.008q-3.418,8.009-6.789,15.851t-6.741,15.851h-3.775V34.49ZM292.909,18.1h-9.5q0.57-1.318,1.211-2.85t1.234-2.944q0.594-1.413,1.092-2.567t0.736-1.766l0.19-.659a2.621,2.621,0,0,0,.142-0.471,1.519,1.519,0,0,1,.095-0.33l0.475,1.46ZM337.663,8.77V3.494a17.858,17.858,0,0,0-4.106-1.743,16.753,16.753,0,0,0-4.582-.612,16.36,16.36,0,0,0-6.6,1.343,17.462,17.462,0,0,0-5.388,3.627,16.9,16.9,0,0,0-3.632,5.37,16.435,16.435,0,0,0-1.329,6.571,16.263,16.263,0,0,0,1.329,6.548,16.934,16.934,0,0,0,9.02,8.95,16.607,16.607,0,0,0,6.6,1.319,16.156,16.156,0,0,0,4.582-.636,18.99,18.99,0,0,0,4.059-1.719L336,30.156a14.43,14.43,0,0,1-3.371,1.437,14.008,14.008,0,0,1-9.139-.609,14.082,14.082,0,0,1-7.43-7.441A13.615,13.615,0,0,1,314.97,18.1a13.462,13.462,0,0,1,1.111-5.422,14.667,14.667,0,0,1,3-4.484A13.945,13.945,0,0,1,323.5,5.163a13.759,13.759,0,0,1,11.222.19V8.77h2.943Zm31.755-4.334h3.8V16.5H353.989V4.436h3.845V1.516H347.343V4.436h3.7V31.711h-3.7V34.49h10.491V31.711h-3.845V19.275h19.227V31.711h-3.8V34.49h10.445V31.711h-3.7V4.436h3.7V1.516H369.418V4.436Zm20.1,30.053h10.492V31.711H396.16V4.436h3.846V1.516H389.514V4.436h3.7V31.711h-3.7V34.49ZM0.013,71.472a7.883,7.883,0,0,0,3.969,6.905,7.848,7.848,0,0,0,3.991,1.057,7.807,7.807,0,0,0,3.98-1.068,7.969,7.969,0,0,0,2.923-2.9,7.736,7.736,0,0,0,1.079-3.992A7.641,7.641,0,0,0,14.865,67.5a8.256,8.256,0,0,0-2.923-2.924,7.634,7.634,0,0,0-3.969-1.09,7.616,7.616,0,0,0-3.98,1.09,8.19,8.19,0,0,0-2.9,2.924A7.7,7.7,0,0,0,.013,71.472h0ZM2.17,71.494a6.084,6.084,0,0,1,.766-3,5.8,5.8,0,0,1,2.1-2.19,5.56,5.56,0,0,1,2.934-.809,5.62,5.62,0,0,1,2.934.8,5.808,5.808,0,0,1,2.114,2.18,6.2,6.2,0,0,1,.011,5.988,5.688,5.688,0,0,1-2.092,2.158,5.618,5.618,0,0,1-2.923.788,5.672,5.672,0,0,1-2.944-.8,5.909,5.909,0,0,1-2.9-5.114h0Zm22.46-7.833v15.6h2.092V72.637H33V70.631H26.722V65.667h7.162V63.661H24.63Zm17.4,0v15.6h2.092V72.637H50.4V70.631H44.124V65.667h7.161V63.661H42.031Zm17.4,0v15.6h2.092v-15.6H59.432ZM82.69,78.1l-0.884-1.877a6.236,6.236,0,0,1-6.655.421,5.148,5.148,0,0,1-2.006-2.125,6.538,6.538,0,0,1-.7-3.043,6.066,6.066,0,0,1,.766-3.01,5.883,5.883,0,0,1,2.049-2.169,5.19,5.19,0,0,1,2.793-.8,6.4,6.4,0,0,1,3.6,1.208L82.5,64.739a8.6,8.6,0,0,0-2.049-.906,8.475,8.475,0,0,0-2.459-.345,7.631,7.631,0,0,0-3.98,1.047,7.341,7.341,0,0,0-2.75,2.892,8.627,8.627,0,0,0-.992,4.154,8.078,8.078,0,0,0,.981,3.949,7.3,7.3,0,0,0,2.8,2.848,8.25,8.25,0,0,0,4.217,1.057,7.284,7.284,0,0,0,2.513-.421A9.285,9.285,0,0,0,82.69,78.1h0Zm8.231-14.436v15.6h2.092v-15.6H90.921Zm21.327,15.6h2.416l-6.817-16.249h-0.129L100.9,79.262h2.07l1.661-4.1h6Zm-6.86-5.913,2.308-5.7,2.222,5.7h-4.53Zm17.143-9.689v15.6h10.03V77.234h-7.938V63.661h-2.092Zm49.224,0.065h-2.243l-3.84,11.113-4.336-11.113h-2.07L160.927,68l-2.7,7.078L154.2,63.725h-2.437L157.971,80l3.991-9.365,3.646,9.322Zm7.975-.065v15.6h10.44V77.234h-8.348V72.422h7.183V70.415h-7.183V65.667h8.046V63.661H179.73Zm25.915,7.509a3.781,3.781,0,0,0,1.564-1.435,4.091,4.091,0,0,0,.55-2.147,3.441,3.441,0,0,0-1.316-2.945,6.1,6.1,0,0,0-3.71-.982H198.7v15.6h4.638a6.96,6.96,0,0,0,2.578-.464,4.229,4.229,0,0,0,1.9-1.446,4.055,4.055,0,0,0,.723-2.471,3.447,3.447,0,0,0-.777-2.233,4.938,4.938,0,0,0-2.114-1.478h0Zm-4.853-5.5h2.027a3.22,3.22,0,0,1,2.05.583,2.125,2.125,0,0,1,.733,1.77,2.56,2.56,0,0,1-.615,1.769,2.31,2.31,0,0,1-1.822.691h-2.373V65.667Zm2.459,11.653h-2.459V72.508H203.1a4.387,4.387,0,0,1,2.319.583,1.971,1.971,0,0,1,.96,1.813,2.055,2.055,0,0,1-.885,1.8,3.84,3.84,0,0,1-2.243.615h0Zm34.038-10.876,0.8-1.618a9.173,9.173,0,0,0-4.681-1.252,5.1,5.1,0,0,0-3.333,1.2,3.768,3.768,0,0,0-1.284,2.967,3.364,3.364,0,0,0,.626,2.082,4.634,4.634,0,0,0,1.5,1.306,17.819,17.819,0,0,0,2.19.971,8.528,8.528,0,0,1,2.211,1.2,2.094,2.094,0,0,1,.787,1.715,2.182,2.182,0,0,1-.938,1.921,3.763,3.763,0,0,1-2.19.647,5.977,5.977,0,0,1-2.092-.421,7.553,7.553,0,0,1-1.92-1.025l-0.927,1.662a9.433,9.433,0,0,0,2.351,1.176,8.428,8.428,0,0,0,2.782.464,5.938,5.938,0,0,0,2.708-.583,4.321,4.321,0,0,0,1.779-1.6,4.23,4.23,0,0,0,.626-2.266,4.3,4.3,0,0,0-.55-2.277,4.161,4.161,0,0,0-1.381-1.4,11.145,11.145,0,0,0-2.038-.939,11.3,11.3,0,0,1-2.492-1.219,1.942,1.942,0,0,1-.129-3.15,3.231,3.231,0,0,1,2.017-.572,6.333,6.333,0,0,1,1.79.281,9.327,9.327,0,0,1,1.79.734h0Zm9.647-2.784v15.6h2.092v-15.6h-2.092Zm10.175,0v2.007h4.076V79.262h2.093V65.667h4.185V63.661H257.111Zm18.436,0v15.6h10.44V77.234h-8.348V72.422h7.183V70.415h-7.183V65.667h8.046V63.661H275.547Z"/>
</svg>
